<svg width="24" height="24" viewBox="0 0 24 24" fill="none" xmlns="http://www.w3.org/2000/svg">
<path fill-rule="evenodd" clip-rule="evenodd" d="M12 0C18.6276 0 23.9999 5.5079 23.9999 12.3035C23.9999 17.7383 20.5655 22.3487 15.8004 23.9771C15.192 24.0983 14.976 23.7141 14.976 23.3865C14.976 22.9809 14.9904 21.6561 14.9904 20.0097C14.9904 18.8625 14.6064 18.1138 14.1756 17.7322C16.848 17.4274 19.6559 16.3869 19.6559 11.6613C19.6559 10.3173 19.1903 9.22056 18.42 8.35896C18.5448 8.04816 18.9564 6.79673 18.3024 5.10233C18.3024 5.10233 17.2968 4.77266 15.006 6.36385C14.0472 6.09145 13.02 5.95439 12 5.94959C10.98 5.95439 9.95398 6.09145 8.99638 6.36385C6.70319 4.77266 5.69519 5.10233 5.69519 5.10233C5.04359 6.79673 5.45519 8.04816 5.57879 8.35896C4.81199 9.22056 4.34279 10.3173 4.34279 11.6613C4.34279 16.3749 7.14479 17.4313 9.80998 17.7421C9.46678 18.0493 9.15598 18.5913 9.04798 19.3869C8.36398 19.7013 6.62638 20.2454 5.55598 18.365C5.55598 18.365 4.92119 17.1828 3.71639 17.0964C3.71639 17.0964 2.54639 17.0809 3.63479 17.8441C3.63479 17.8441 4.42079 18.2221 4.96679 19.6441C4.96679 19.6441 5.67119 21.84 9.00958 21.096C9.01558 22.1244 9.02638 23.0937 9.02638 23.3865C9.02638 23.7117 8.80557 24.0923 8.20678 23.9783C3.43799 22.3523 0 17.7395 0 12.3035C0 5.5079 5.37359 0 12 0Z" fill="#3B48D3"/>
</svg>
